<svg t="1656494527950" class="icon" viewBox="0 0 1024 1024" version="1.1" xmlns="http://www.w3.org/2000/svg" p-id="6267" width="200" height="200"><path d="M112.47 156.56c31.343-4.09 58.775 19.577 58.989 50.847 0.214 31.57-25.768 52.7-51.87 52.884-29.999 0.214-51.234-23.244-52.88-48.812-1.84-28.559 17.455-51.23 45.762-54.918z m138.31 25.424h704.777v51.865H249.766v-48.813c-0.087-1.446-0.17-2.882 1.014-3.052zM111.455 470.81c12.788-1.869 28.272 1.69 36.614 7.119 11.273 7.342 23.356 25.991 23.39 43.727 0.063 33.862-27.592 52.719-51.87 52.884-30.004 0.204-51.273-23.807-52.88-48.812-1.916-29.772 18.542-51.095 44.746-54.918z m139.325 25.423h704.777v51.865H249.766v-48.813c-0.087-1.441-0.17-2.882 1.014-3.052zM113.489 758.617c31.785-3.412 57.765 20.94 57.97 50.85 0.224 33.25-27.32 53.996-54.923 52.88-29.684-1.194-50.03-25.913-49.832-52.88 0.223-29.212 19.964-47.969 46.785-50.85z m137.29 25.423h704.778v51.87H249.766v-48.818c-0.087-1.442-0.17-2.882 1.014-3.052z m0 0" fill="" p-id="6268"></path></svg>