<svg t="1656493780997" class="icon" viewBox="0 0 1024 1024" version="1.1" xmlns="http://www.w3.org/2000/svg" p-id="3594" width="200" height="200"><path d="M977.066667 362.666667a25.6 25.6 0 0 0-25.6-25.6h-103.68a599.68 599.68 0 0 0-47.573334-67.84c-85.333333-103.893333-187.946667-161.066667-291.626666-161.066667s-207.36 57.173333-291.626667 161.066667a599.466667 599.466667 0 0 0-47.573333 67.84H68.266667A25.6 25.6 0 0 0 42.666667 362.666667c0 192 21.333333 380.16 215.893333 461.226666L256 919.466667a25.6 25.6 0 0 0 25.6 26.453333h442.24a25.6 25.6 0 0 0 25.6-26.453333L746.666667 829.653333C955.306667 752.213333 977.066667 559.36 977.066667 362.666667z m-469.333334-203.52c109.226667 0 210.773333 80.853333 277.333334 177.92h-554.666667c68.266667-97.066667 168.96-177.92 278.186667-177.92z m188.8 735.573333H307.2l1.92-53.546667a744.96 744.96 0 0 0 200.746667 23.893334 768 768 0 0 0 185.813333-20.053334z m-186.666666-80.64c-339.413333 0-411.946667-149.333333-416-426.666667h832c-4.053333 277.333333-76.586667 426.666667-416 426.666667z m49.28-559.36l46.933333 22.613333a23.466667 23.466667 0 1 0 21.333333-42.666666l-47.36-21.333334a23.466667 23.466667 0 0 0-21.333333 42.666667z m-156.373334 18.346667a23.253333 23.253333 0 0 0 13.013334-4.053334l36.906666-24.96A23.466667 23.466667 0 0 0 426.666667 205.226667l-36.906667 25.173333a23.253333 23.253333 0 0 0 13.226667 42.666667z" fill="#898989" p-id="3595"></path></svg>